<?xml version="1.0" encoding="UTF-8"?> <svg xmlns="http://www.w3.org/2000/svg" width="1813" height="512" viewBox="0 0 1813 512" fill="none"><path d="M469.812 11.1328H633.737V47.6184H569.798V278.059H533.326V47.6184H469.812V11.1328Z" fill="#111111"></path><path d="M17.0703 11.1328H81.8041C133.079 11.1328 171.277 24.647 196.236 51.7576C221.263 78.8682 233.791 109.83 233.791 144.589C233.791 179.347 220.852 210.68 195.03 237.639C169.139 264.599 131.585 278.045 82.2427 278.045H17.0703V11.1328ZM53.5422 46.7549V241.587H55.6118C82.6539 241.587 102.953 240.367 116.618 237.941C130.282 235.515 143.221 230.142 155.461 221.919C167.755 213.695 177.486 202.826 184.709 189.23C191.932 175.633 195.578 160.694 195.578 144.383C195.578 123.852 189.781 105.335 178.267 88.7366C166.686 72.2071 152.87 61.064 136.779 55.3349C120.688 49.6195 99.0875 46.7549 71.9083 46.7549H53.5285H53.5422Z" fill="#111111"></path><path fill-rule="evenodd" clip-rule="evenodd" d="M935.459 11.1406H977.656C1005.42 11.1406 1028.02 17.2261 1045.61 29.3012C1063.12 41.3899 1071.92 56.6174 1071.92 75.0795C1071.92 97.6122 1059.19 116.417 1033.72 131.507C1073.48 144.884 1093.37 168.13 1093.37 201.244C1093.37 224.27 1083 242.801 1062.33 256.891C1041.59 270.98 1013.9 278.066 979.136 278.066H935.445V11.1406H935.459ZM971.926 43.3225V122.283C991.886 121.995 1007.2 118.13 1017.78 110.77C1028.43 103.328 1033.74 93.1715 1033.74 80.1644C1033.74 68.8569 1028.94 59.852 1019.36 53.0538C1009.78 46.2556 996.976 42.8976 980.866 42.8976C977.426 42.8976 974.426 43.0347 971.926 43.3225ZM971.926 154.04V245.446H974.796C1005.84 245.446 1026.94 240.443 1038.24 230.356C1049.54 220.268 1055.2 210.043 1055.2 199.531C1055.2 185.729 1048.84 174.64 1036.18 166.417C1023.51 158.193 1006.21 154.04 984.106 154.04H971.946H971.926Z" fill="#111111"></path><path fill-rule="evenodd" clip-rule="evenodd" d="M1158.22 11.1406H1306.28V47.6125H1194.71V113.703H1306.28V150.175H1194.71V241.581H1306.28V278.053H1158.22V11.1406Z" fill="#111111"></path><path fill-rule="evenodd" clip-rule="evenodd" d="M1617.41 11.1406H1781.33V47.6125H1717.4V278.053H1680.92V47.6125H1617.41V11.1406Z" fill="#111111"></path><path fill-rule="evenodd" clip-rule="evenodd" d="M1397.99 278.055H1360.09L1485.17 0.835938L1611.12 278.055H1573.14L1485.31 84.6486C1430.66 205.646 1440.34 184.264 1397.97 278.055" fill="#111111"></path><path fill-rule="evenodd" clip-rule="evenodd" d="M666.53 278.055H628.633L753.728 0.835938L879.673 278.055H841.694L753.865 84.6486C699.219 205.646 708.896 184.264 666.53 278.055Z" fill="#111111"></path><path fill-rule="evenodd" clip-rule="evenodd" d="M1299.03 368.105C1113.32 362.938 921.698 360.361 734.761 358.894C731.43 336.43 712.118 319.174 688.722 319.174C662.982 319.174 642.122 340.035 642.122 365.775C642.122 377.027 646.11 387.348 652.757 395.407C646.425 407.14 645.178 409.456 637.927 422.874C631.76 419.873 624.866 418.132 617.547 418.132C612.955 418.132 608.542 418.817 604.348 420.051L563.983 353.686C571.727 347.943 576.757 338.774 576.757 328.398C576.757 311.005 562.667 296.902 545.274 296.902C527.881 296.902 513.792 311.005 513.792 328.398C513.792 328.796 513.833 329.179 513.846 329.577C508.405 332.236 502.977 334.895 497.522 337.554C489.779 324.341 475.689 315.35 459.42 314.733C434.433 252.864 399.497 166.31 382.844 125.905C380.527 120.285 374.689 105.976 368.096 89.8577C380.664 81.5107 388.97 67.2427 388.97 51.0147C388.97 25.2747 368.11 4.41406 342.37 4.41406C316.63 4.41406 295.769 25.2747 295.769 51.0147C295.769 66.7904 303.623 80.7021 315.615 89.145C315.204 90.1044 314.807 90.9816 314.464 91.7766C285.421 160.17 249.018 244.613 220.536 312.883C212.738 331.427 204.925 349.958 197.14 368.502C194.084 367.488 190.835 366.912 187.436 366.912C179.048 366.912 171.441 370.298 165.904 375.753C150.457 360.923 140.89 351.726 132.817 343.982C134.298 341.145 135.134 337.924 135.134 334.511C135.134 323.135 125.923 313.925 114.547 313.925C103.171 313.925 94.0156 323.094 93.9608 334.415C62.8343 335.142 23.7994 336.128 0.882812 336.8C23.3882 337.472 63.4373 338.472 94.5227 339.199C96.6472 348.299 104.802 355.084 114.547 355.084C120.126 355.084 125.17 352.864 128.87 349.259C137.107 357.811 146.085 367.132 160.792 382.386C158.229 386.868 156.748 392.036 156.748 397.559C156.748 414.5 170.482 428.233 187.422 428.233C204.363 428.233 218.097 414.5 218.097 397.559C218.097 387.924 213.642 379.33 206.693 373.711C248.387 282.743 291.287 188.158 332.364 96.5052C335.585 97.2042 338.929 97.6017 342.356 97.6017C344.933 97.6017 347.441 97.3412 349.908 96.9301C357.254 115.557 364.272 133.347 364.272 133.347C380.02 173.931 413.559 257.346 438.175 318.955C422.358 326.301 411.366 342.296 411.366 360.882C411.366 386.43 432.076 407.14 457.624 407.14C483.172 407.14 503.882 386.43 503.882 360.882C503.882 360.087 503.8 359.305 503.759 358.524C509.844 355.536 515.902 352.535 521.974 349.547C527.196 355.29 534.488 359.086 542.684 359.744C554.937 379.7 566.903 399.19 586.064 430.385C576.771 438.91 570.919 451.109 570.919 464.705C570.919 490.445 591.779 511.306 617.519 511.306C643.259 511.306 664.12 490.445 664.12 464.705C664.12 453.699 660.282 443.612 653.909 435.635C660.885 422.326 661.982 420.215 668.533 407.702C674.646 410.648 681.458 412.334 688.695 412.334C710.419 412.334 728.621 397.449 733.774 377.343C746.288 377.26 755.978 377.206 755.978 377.206C934.486 375.424 1120.74 373.176 1299 368.077L1299.03 368.105Z" fill="url(#paint0_linear_5740_6559)"></path><defs><linearGradient id="paint0_linear_5740_6559" x1="48.6896" y1="257.881" x2="827.784" y2="257.881" gradientUnits="userSpaceOnUse"><stop stop-color="#39C8C5"></stop><stop offset="0.48" stop-color="#008DC4"></stop><stop offset="1" stop-color="#601BCE"></stop></linearGradient></defs></svg> 